HIERARCHY
ROOT Root
{
  OFFSET 0.0 0.0 0.0
  CHANNELS 6 Xposition Yposition Zposition Zrotation Yrotation Xrotation
  JOINT Hips
  {
    OFFSET 0.0 100.0 0.0
    CHANNELS 6 Xposition Yposition Zposition Zrotation Yrotation Xrotation
    JOINT Spine1
    {
      OFFSET -0.013727 5.003763 -0.053727
      CHANNELS 3 Zrotation Yrotation Xrotation
      JOINT Spine2
      {
        OFFSET -0.0 7.125301 -0.029825
        CHANNELS 3 Zrotation Yrotation Xrotation
        JOINT Chest
        {
          OFFSET -1e-06 7.550063 -0.815971
          CHANNELS 3 Zrotation Yrotation Xrotation
          JOINT Neck1
          {
            OFFSET -0.181677 26.311295 -0.553348
            CHANNELS 3 Zrotation Yrotation Xrotation
            JOINT Neck2
            {
              OFFSET -3e-06 7.709397 2.302585
              CHANNELS 3 Zrotation Yrotation Xrotation
              JOINT Head
              {
                OFFSET -5e-06 6.128916 1.953709
                CHANNELS 3 Zrotation Yrotation Xrotation
                JOINT HeadEnd
                {
                  OFFSET 0.003598 16.065403 -1.835379
                  CHANNELS 3 Zrotation Yrotation Xrotation
                }
                JOINT Jaw
                {
                  OFFSET 0.002637 0.475592 3.094941
                  CHANNELS 3 Zrotation Yrotation Xrotation
                }
                JOINT LeftEye
                {
                  OFFSET 3.206381 5.380205 7.586883
                  CHANNELS 3 Zrotation Yrotation Xrotation
                }
                JOINT RightEye
                {
                  OFFSET -3.22244 5.361869 7.558234
                  CHANNELS 3 Zrotation Yrotation Xrotation
                }
              }
            }
          }
          JOINT LeftShoulder
          {
            OFFSET 1.621652 23.237164 5.113413
            CHANNELS 3 Zrotation Yrotation Xrotation
            JOINT LeftArm
            {
              OFFSET 14.919846 2e-06 -5.502326
              CHANNELS 3 Zrotation Yrotation Xrotation
              JOINT LeftForeArm
              {
                OFFSET 28.739307 0.0 -0.002588
                CHANNELS 3 Zrotation Yrotation Xrotation
                JOINT LeftHand
                {
                  OFFSET 27.093981 -1e-06 0.002609
                  CHANNELS 3 Zrotation Yrotation Xrotation
                  JOINT LeftHandThumb1
                  {
                    OFFSET 2.276482 -1.392045 3.191413
                    CHANNELS 3 Zrotation Yrotation Xrotation
                    JOINT LeftHandThumb2
                    {
                      OFFSET 4.012836 -1.828127 1.641654
                      CHANNELS 3 Zrotation Yrotation Xrotation
                      JOINT LeftHandThumb3
                      {
                        OFFSET 2.798515 0.0 -3e-06
                        CHANNELS 3 Zrotation Yrotation Xrotation
                        JOINT LeftHandThumbEnd
                        {
                          OFFSET 3.180793 -4e-06 4e-06
                          CHANNELS 3 Zrotation Yrotation Xrotation
                        }
                      }
                    }
                  }
                  JOINT LeftHandIndex1
                  {
                    OFFSET 3.247555 -0.531998 2.296169
                    CHANNELS 3 Zrotation Yrotation Xrotation
                    JOINT LeftHandIndex2
                    {
                      OFFSET 6.364578 0.01206 0.1786
                      CHANNELS 3 Zrotation Yrotation Xrotation
                      JOINT LeftHandIndex3
                      {
                        OFFSET 3.662364 0.0 0.0
                        CHANNELS 3 Zrotation Yrotation Xrotation
                        JOINT LeftHandIndex4
                        {
                          OFFSET 2.329242 4e-06 4e-06
                          CHANNELS 3 Zrotation Yrotation Xrotation
                          JOINT LeftHandIndexEnd
                          {
                            OFFSET 2.759615 -0.180537 -0.113024
                            CHANNELS 3 Zrotation Yrotation Xrotation
                          }
                        }
                      }
                    }
                  }
                  JOINT LeftHandMiddle1
                  {
                    OFFSET 3.163495 0.240981 1.000332
                    CHANNELS 3 Zrotation Yrotation Xrotation
                    JOINT LeftHandMiddle2
                    {
                      OFFSET 6.19078 -0.259278 -1.002548
                      CHANNELS 3 Zrotation Yrotation Xrotation
                      JOINT LeftHandMiddle3
                      {
                        OFFSET 4.35652 -4e-06 -1e-06
                        CHANNELS 3 Zrotation Yrotation Xrotation
                        JOINT LeftHandMiddle4
                        {
                          OFFSET 2.996877 -8e-06 0.0
                          CHANNELS 3 Zrotation Yrotation Xrotation
                          JOINT LeftHandMiddleEnd
                          {
                            OFFSET 2.304287 -0.294569 -0.031741
                            CHANNELS 3 Zrotation Yrotation Xrotation
                          }
                        }
                      }
                    }
                  }
                  JOINT LeftHandRing1
                  {
                    OFFSET 2.882643 -0.053652 -0.322543
                    CHANNELS 3 Zrotation Yrotation Xrotation
                    JOINT LeftHandRing2
                    {
                      OFFSET 5.854541 -0.486202 -1.373841
                      CHANNELS 3 Zrotation Yrotation Xrotation
                      JOINT LeftHandRing3
                      {
                        OFFSET 4.350578 0.0 3e-06
                        CHANNELS 3 Zrotation Yrotation Xrotation
                        JOINT LeftHandRing4
                        {
                          OFFSET 2.651321 7e-06 2e-06
                          CHANNELS 3 Zrotation Yrotation Xrotation
                          JOINT LeftHandRingEnd
                          {
                            OFFSET 1.936105 0.077687 -7.1e-05
                            CHANNELS 3 Zrotation Yrotation Xrotation
                          }
                        }
                      }
                    }
                  }
                  JOINT LeftHandPinky1
                  {
                    OFFSET 2.8655 -0.310005 -1.600378
                    CHANNELS 3 Zrotation Yrotation Xrotation
                    JOINT LeftHandPinky2
                    {
                      OFFSET 5.087849 -1.331141 -1.77123
                      CHANNELS 3 Zrotation Yrotation Xrotation
                      JOINT LeftHandPinky3
                      {
                        OFFSET 3.070974 4e-06 0.0
                        CHANNELS 3 Zrotation Yrotation Xrotation
                        JOINT LeftHandPinky4
                        {
                          OFFSET 1.549672 0.0 1e-06
                          CHANNELS 3 Zrotation Yrotation Xrotation
                          JOINT LeftHandPinkyEnd
                          {
                            OFFSET 1.944893 -0.157802 0.057219
                            CHANNELS 3 Zrotation Yrotation Xrotation
                          }
                        }
                      }
                    }
                  }
                }
              }
            }
          }
          JOINT RightShoulder
          {
            OFFSET -1.380118 23.180309 5.214158
            CHANNELS 3 Zrotation Yrotation Xrotation
            JOINT RightArm
            {
              OFFSET -15.037196 1.2e-05 -5.545604
              CHANNELS 3 Zrotation Yrotation Xrotation
              JOINT RightForeArm
              {
                OFFSET -28.736639 2e-06 -0.002597
                CHANNELS 3 Zrotation Yrotation Xrotation
                JOINT RightHand
                {
                  OFFSET -27.133619 -0.0 0.002613
                  CHANNELS 3 Zrotation Yrotation Xrotation
                  JOINT RightHandThumb1
                  {
                    OFFSET -2.274032 -1.383988 3.163127
                    CHANNELS 3 Zrotation Yrotation Xrotation
                    JOINT RightHandThumb2
                    {
                      OFFSET -4.011429 -1.827466 1.640914
                      CHANNELS 3 Zrotation Yrotation Xrotation
                      JOINT RightHandThumb3
                      {
                        OFFSET -2.794935 -4e-06 -3e-06
                        CHANNELS 3 Zrotation Yrotation Xrotation
                        JOINT RightHandThumbEnd
                        {
                          OFFSET -3.183852 4e-06 1e-06
                          CHANNELS 3 Zrotation Yrotation Xrotation
                        }
                      }
                    }
                  }
                  JOINT RightHandIndex1
                  {
                    OFFSET -3.253266 -0.520057 2.282866
                    CHANNELS 3 Zrotation Yrotation Xrotation
                    JOINT RightHandIndex2
                    {
                      OFFSET -6.341917 0.012471 0.178266
                      CHANNELS 3 Zrotation Yrotation Xrotation
                      JOINT RightHandIndex3
                      {
                        OFFSET -3.654871 -8e-06 -0.0
                        CHANNELS 3 Zrotation Yrotation Xrotation
                        JOINT RightHandIndex4
                        {
                          OFFSET -2.327586 0.0 1e-06
                          CHANNELS 3 Zrotation Yrotation Xrotation
                          JOINT RightHandIndexEnd
                          {
                            OFFSET -2.76179 -0.180656 -0.113078
                            CHANNELS 3 Zrotation Yrotation Xrotation
                          }
                        }
                      }
                    }
                  }
                  JOINT RightHandMiddle1
                  {
                    OFFSET -3.168106 0.246593 1.00103
                    CHANNELS 3 Zrotation Yrotation Xrotation
                    JOINT RightHandMiddle2
                    {
                      OFFSET -6.180828 -0.258836 -1.000895
                      CHANNELS 3 Zrotation Yrotation Xrotation
                      JOINT RightHandMiddle3
                      {
                        OFFSET -4.348901 0.0 -0.0
                        CHANNELS 3 Zrotation Yrotation Xrotation
                        JOINT RightHandMiddle4
                        {
                          OFFSET -3.00024 -4e-06 -2e-06
                          CHANNELS 3 Zrotation Yrotation Xrotation
                          JOINT RightHandMiddleEnd
                          {
                            OFFSET -2.30252 -0.29437 -0.031706
                            CHANNELS 3 Zrotation Yrotation Xrotation
                          }
                        }
                      }
                    }
                  }
                  JOINT RightHandRing1
                  {
                    OFFSET -2.88569 -0.067952 -0.308858
                    CHANNELS 3 Zrotation Yrotation Xrotation
                    JOINT RightHandRing2
                    {
                      OFFSET -5.854198 -0.48613 -1.373731
                      CHANNELS 3 Zrotation Yrotation Xrotation
                      JOINT RightHandRing3
                      {
                        OFFSET -4.33881 -4e-06 -0.0
                        CHANNELS 3 Zrotation Yrotation Xrotation
                        JOINT RightHandRing4
                        {
                          OFFSET -2.654903 -4e-06 4e-06
                          CHANNELS 3 Zrotation Yrotation Xrotation
                          JOINT RightHandRingEnd
                          {
                            OFFSET -1.933568 0.077527 -5.2e-05
                            CHANNELS 3 Zrotation Yrotation Xrotation
                          }
                        }
                      }
                    }
                  }
                  JOINT RightHandPinky1
                  {
                    OFFSET -2.866425 -0.342796 -1.584145
                    CHANNELS 3 Zrotation Yrotation Xrotation
                    JOINT RightHandPinky2
                    {
                      OFFSET -5.091371 -1.332055 -1.772385
                      CHANNELS 3 Zrotation Yrotation Xrotation
                      JOINT RightHandPinky3
                      {
                        OFFSET -3.062664 -4e-06 1e-06
                        CHANNELS 3 Zrotation Yrotation Xrotation
                        JOINT RightHandPinky4
                        {
                          OFFSET -1.546529 4e-06 -2e-06
                          CHANNELS 3 Zrotation Yrotation Xrotation
                          JOINT RightHandPinkyEnd
                          {
                            OFFSET -1.945119 -0.157718 0.057211
                            CHANNELS 3 Zrotation Yrotation Xrotation
                          }
                        }
                      }
                    }
                  }
                }
              }
            }
          }
        }
      }
    }
    JOINT LeftLeg
    {
      OFFSET 10.043214 -8.434526 2.595655
      CHANNELS 3 Zrotation Yrotation Xrotation
      JOINT LeftShin
      {
        OFFSET -1e-06 -43.221752 -0.802913
        CHANNELS 3 Zrotation Yrotation Xrotation
        JOINT LeftFoot
        {
          OFFSET 1e-06 -42.155094 -3.481523
          CHANNELS 3 Zrotation Yrotation Xrotation
          JOINT LeftToeBase
          {
            OFFSET 0.0 -5.059472 13.231529
            CHANNELS 3 Zrotation Yrotation Xrotation
            JOINT LeftToeEnd
            {
              OFFSET -0.009607 -1.647619 6.513017
              CHANNELS 3 Zrotation Yrotation Xrotation
            }
          }
        }
      }
    }
    JOINT RightLeg
    {
      OFFSET -10.047278 -8.29526 2.620317
      CHANNELS 3 Zrotation Yrotation Xrotation
      JOINT RightShin
      {
        OFFSET 1e-06 -43.362206 -0.805556
        CHANNELS 3 Zrotation Yrotation Xrotation
        JOINT RightFoot
        {
          OFFSET 2e-06 -42.117393 -3.478398
          CHANNELS 3 Zrotation Yrotation Xrotation
          JOINT RightToeBase
          {
            OFFSET -0.0 -5.079609 13.284196
            CHANNELS 3 Zrotation Yrotation Xrotation
            JOINT RightToeEnd
            {
              OFFSET 0.009532 -1.634378 6.460591
              CHANNELS 3 Zrotation Yrotation Xrotation
            }
          }
        }
      }
    }
  }
}
MOTION
Frames: 4
Frame Time: 0.03333333333333333
0.0 0.0 0.0 0.0 -0.0 0.0 5.218241 99.096008 224.869629 0.850472 -2.517946 -0.035586 -1.04166 -0.426107 -1.151102 -0.684294 -0.408392 -5.449398 -0.889531 -2.698684 9.780653 1.107511 2.540029 1.300604 0.017209 2.679248 -3.493071 0.641827 2.282756 -12.856852 7.7e-05 -2.3e-05 6e-06 -0.020775 -0.126383 0.061515 0.68152 -3.883152 -10.572271 -0.725339 3.637813 -10.56861 -10.271301 -9.24135 14.955128 -57.898865 -11.869645 29.482225 -0.782567 -25.371542 0.203384 4.273919 1.393543 -14.217573 -5.882112 9.861293 0.702589 -10.93688 -0.360574 7.15621 0.0 8.77483 -1e-06 -16.042635 17.957672 6.099476 -1.844034 2.498507 -2.507281 -10.163607 4.678948 4.621112 -20.976038 -1e-06 -0.0 -21.226303 2.451699 -3.594006 2e-06 -5e-06 -0.0 -1.362682 2.2408 -0.746324 -21.334929 0.584913 3.008324 -13.821223 -1e-06 -1e-06 -23.887186 -0.249077 -0.839487 -60.350548 2.67991 -0.949639 -0.294025 1.679687 0.833257 -14.218217 0.093217 1.300578 -34.212074 -0.287562 0.967168 -20.033226 0.964537 1.212841 -1e-06 1e-06 1e-06 -3.440392 0.788235 0.501655 -15.928201 -3.16731 2.999708 -6.338831 0.0 0.0 -18.123463 3.648186 -4.905678 -4e-06 -1e-06 -0.0 15.978555 10.957944 15.492168 59.733295 4.203259 14.367167 0.280642 32.372807 0.100566 -8.873278 2.551268 -13.497064 2.243543 -5.255037 -3.18016 14.282896 -0.826594 6.952505 -2e-06 -12.690609 -0.0 16.057467 -17.668837 2.701106 1.665667 -1.955922 -2.8783 4.727801 -4.170588 4.993925 11.020531 3e-06 -2e-06 12.109057 -3.735717 -2.866786 1e-06 1e-06 0.0 1.291985 -1.92855 -1.49809 14.800132 0.567467 3.865608 14.242577 -1.341737 -6.66066 19.631975 0.143926 -0.648245 49.606937 -0.476307 -6.121957 0.353029 -1.511151 -0.03194 20.222801 3.684311 2.316631 18.787283 6e-06 -2e-06 10.751631 -0.479868 1.397905 -0.0 1e-06 1e-06 3.273808 0.305948 -0.580111 21.486824 11.830377 2.266133 8.16293 2e-06 -1e-06 18.399092 -3.798986 -4.940578 4e-06 1e-06 -1e-06 2.737993 6.559035 -11.405866 -0.052048 -0.165133 18.627695 -3.971449 -3.982289 -6.835732 1.619244 -2.038907 1.84302 0.0 0.0 2e-06 -10.911257 -10.28199 -9.760717 0.049855 0.172907 10.420933 10.010247 -3.741364 1.084535 -1.432264 0.951816 1.272677 -0.0 0.0 -1e-06 
0.0 0.0 0.0 0.0 -0.0 0.0 4.605594 99.188812 225.358795 0.566311 -2.468931 0.260985 -0.69477 -0.345756 -1.428152 -0.607179 -0.28559 -5.550742 -0.872028 -2.61891 9.823458 0.696949 2.651438 1.613668 -0.013281 2.50104 -3.514393 0.589666 2.081108 -12.839611 7.7e-05 -2.3e-05 6e-06 -0.011409 -0.096482 0.051557 0.688595 -3.8524 -10.564214 -0.713726 3.66556 -10.559201 -11.057855 -8.90431 14.970334 -57.472374 -11.728433 28.447569 -0.688319 -24.376894 0.188246 4.384703 1.800903 -14.573904 -5.882112 9.861293 0.702592 -10.936883 -0.360575 7.156211 1e-06 8.774833 -1e-06 -16.095987 17.873575 5.996913 -1.844035 2.498505 -2.507276 -10.16361 4.678947 4.62111 -20.976044 -5e-06 4e-06 -21.226307 2.451697 -3.594001 1e-06 -6e-06 -0.0 -1.362683 2.240799 -0.746322 -21.334938 0.584909 3.008324 -13.821228 -3e-06 2e-06 -23.887196 -0.249078 -0.839482 -60.282143 2.741919 -1.036272 -0.294024 1.679689 0.833256 -14.218225 0.093215 1.300582 -34.212086 -0.287565 0.967174 -20.033236 0.964538 1.212845 -1e-06 -0.0 1e-06 -3.440394 0.788235 0.501657 -15.928206 -3.167312 2.999711 -6.338833 -2e-06 1e-06 -18.123468 3.648184 -4.905672 -5e-06 1e-06 1e-06 15.829196 11.261234 15.545333 59.058708 4.592659 15.371963 0.272083 32.594166 0.135195 -8.574516 2.491782 -13.24656 2.243544 -5.255041 -3.180159 14.282904 -0.826595 6.952506 -3e-06 -12.690617 2e-06 16.013668 -17.637291 2.675422 1.665669 -1.955925 -2.878303 4.727803 -4.170591 4.993927 11.020538 3e-06 -4e-06 12.109066 -3.735719 -2.866788 -0.0 1e-06 0.0 1.291987 -1.928551 -1.498091 14.800142 0.567469 3.865608 14.242589 -1.341737 -6.660667 19.63199 0.143929 -0.648248 49.47892 -0.553089 -6.239257 0.353029 -1.511152 -0.03194 20.222815 3.684315 2.316629 18.787291 8e-06 -2e-06 10.751639 -0.479867 1.397904 0.0 0.0 0.0 3.273811 0.305948 -0.580111 21.486837 11.83039 2.266134 8.162938 3e-06 -2e-06 18.399101 -3.798987 -4.940582 4e-06 1e-06 -0.0 3.452372 6.075596 -11.106738 -0.055684 -0.152183 18.084013 -4.340036 -3.377859 -6.869661 1.624373 -2.036433 1.859383 -0.0 0.0 2e-06 -10.213999 -10.292287 -9.68404 0.065446 0.170519 10.384305 9.822789 -3.939612 0.681061 -1.4261 0.912234 1.332838 -0.0 0.0 -1e-06 
0.0 0.0 0.0 0.0 -0.0 0.0 3.903452 99.272217 225.851151 0.154611 -2.074673 0.511663 -0.395224 -0.30256 -1.667945 -0.5619 -0.260733 -5.660171 -0.771313 -2.565021 9.860561 0.583661 2.645466 1.90458 -0.090683 2.276334 -3.547701 0.522987 1.840366 -12.703283 7.7e-05 -2.3e-05 6e-06 -0.007523 -0.089825 0.043001 0.694195 -3.844507 -10.578178 -0.711569 3.669676 -10.569138 -11.450779 -8.740234 15.13141 -57.384239 -11.630181 27.189442 -0.589635 -23.797323 0.167281 4.540934 2.361284 -15.138883 -5.882103 9.861281 0.702591 -10.936869 -0.360577 7.156203 2e-06 8.774822 -1e-06 -16.177408 17.850037 5.948162 -1.844032 2.498503 -2.507278 -10.163597 4.678943 4.621108 -20.976021 -6e-06 5e-06 -21.226284 2.451693 -3.593997 0.0 -6e-06 -1e-06 -1.362681 2.240798 -0.746321 -21.334913 0.584907 3.008324 -13.821213 -4e-06 2e-06 -23.887167 -0.249081 -0.839482 -60.370945 2.799892 -1.154669 -0.294024 1.679687 0.833256 -14.218207 0.093212 1.300581 -34.212048 -0.287567 0.967178 -20.033211 0.964535 1.212847 0.0 -0.0 1e-06 -3.440387 0.788232 0.501655 -15.928183 -3.16731 2.999708 -6.338825 -2e-06 3e-06 -18.123444 3.64818 -4.905666 -4e-06 -0.0 -1e-06 15.993848 11.372278 15.60744 58.411739 4.801806 16.015396 0.195609 32.697422 0.10181 -8.017531 2.44577 -12.818008 2.243542 -5.255037 -3.18016 14.282896 -0.826593 6.952506 -4e-06 -12.690605 -1e-06 16.023445 -17.642345 2.675729 1.665667 -1.955923 -2.8783 4.727801 -4.170587 4.993926 11.020531 5e-06 -3e-06 12.109056 -3.735715 -2.866785 -0.0 0.0 -1e-06 1.291986 -1.92855 -1.498091 14.800138 0.56747 3.86561 14.242579 -1.341733 -6.660661 19.631975 0.143929 -0.648245 49.470638 -0.579925 -6.318587 0.353029 -1.511152 -0.03194 20.222801 3.684311 2.31663 18.787283 8e-06 -0.0 10.751633 -0.479867 1.397907 -0.0 1e-06 1e-06 3.273808 0.305948 -0.580111 21.486824 11.830381 2.266133 8.16293 3e-06 1e-06 18.399088 -3.798984 -4.940576 5e-06 0.0 -0.0 4.365202 5.461114 -10.864207 -0.068258 -0.150885 17.640326 -4.762318 -3.126816 -6.900648 1.631158 -2.037349 1.822336 -0.0 0.0 2e-06 -9.347463 -10.589704 -9.412193 0.061973 0.132165 10.273944 9.697307 -4.105536 0.243488 -1.424151 0.88066 1.296557 -0.0 0.0 -1e-06 
0.0 0.0 0.0 0.0 -0.0 0.0 3.151062 99.293892 226.345413 -0.397584 -1.369162 0.653596 -0.099968 -0.294509 -1.811703 -0.553655 -0.306105 -5.736852 -0.571166 -2.496347 9.904212 0.689193 2.563097 2.119495 -0.159371 2.022396 -3.588754 0.389735 1.579675 -12.503446 7.7e-05 -2.2e-05 6e-06 -0.010878 -0.111593 0.036613 0.696817 -3.865775 -10.608079 -0.720993 3.646635 -10.593451 -11.45985 -8.665867 15.30503 -57.53183 -11.634611 26.511885 -0.525518 -23.865202 0.154398 4.634011 2.558358 -15.994112 -5.882108 9.861286 0.702591 -10.936872 -0.360574 7.156205 -1e-06 8.774826 -0.0 -16.217068 17.846216 5.962156 -1.844033 2.498505 -2.507277 -10.163602 4.678947 4.621107 -20.976027 -1e-06 1e-06 -21.226288 2.451699 -3.594001 0.0 -5e-06 -0.0 -1.362682 2.240799 -0.746324 -21.334915 0.584912 3.008322 -13.821215 -1e-06 1e-06 -23.887173 -0.249075 -0.839484 -60.45483 2.804495 -1.203597 -0.294025 1.679688 0.833257 -14.218208 0.093217 1.300581 -34.212051 -0.28756 0.967165 -20.033215 0.964538 1.212842 1e-06 -1e-06 -0.0 -3.440388 0.788233 0.501656 -15.928185 -3.167309 2.999707 -6.338827 -1e-06 1e-06 -18.123449 3.648184 -4.905672 -4e-06 -1e-06 -2e-06 16.472111 11.345109 15.649862 57.776455 4.823452 16.236908 0.109551 32.616642 0.052812 -7.66319 2.674671 -12.590924 2.243541 -5.255037 -3.180157 14.282894 -0.826595 6.952505 -2e-06 -12.690604 1e-06 16.037525 -17.651163 2.695435 1.665666 -1.955921 -2.8783 4.727799 -4.170588 4.993925 11.020526 3e-06 -0.0 12.109053 -3.735717 -2.866784 -0.0 0.0 -1e-06 1.291986 -1.928549 -1.498089 14.800129 0.567468 3.86561 14.242574 -1.341738 -6.660657 19.631969 0.143924 -0.648244 49.551815 -0.553555 -6.309335 0.353029 -1.51115 -0.031941 20.222795 3.684309 2.316631 18.787279 5e-06 -0.0 10.751627 -0.47987 1.397905 -0.0 1e-06 1e-06 3.273807 0.305948 -0.580111 21.486814 11.830373 2.266135 8.162929 1e-06 1e-06 18.399082 -3.798987 -4.940574 4e-06 1e-06 -1e-06 5.472407 4.939854 -10.815875 -0.075859 -0.170444 17.687241 -5.231399 -3.254681 -7.155373 1.633649 -2.03016 1.734116 -0.0 -0.0 2e-06 -8.330002 -11.045306 -9.128233 0.037428 0.077566 10.510397 9.600834 -4.311827 -0.422785 -1.427145 0.879667 1.285005 -0.0 0.0 -1e-06 
